<svg xmlns="http://www.w3.org/2000/svg" xmlns:xlink="http://www.w3.org/1999/xlink" viewBox="0,0,256,256" width="24px" height="24px" fill-rule="nonzero"><g fill="#566a85" fill-rule="nonzero" stroke="none" stroke-width="1" stroke-linecap="butt" stroke-linejoin="miter" stroke-miterlimit="10" stroke-dasharray="" stroke-dashoffset="0" font-family="none" font-weight="none" font-size="none" text-anchor="none" style="mix-blend-mode: normal"><g transform="scale(10.66667,10.66667)"><path d="M12,6c1,0 1.941,0.247 2.769,0.681c0.79,0.414 1.75,0.301 2.381,-0.33v0c0.945,-0.945 0.72,-2.545 -0.459,-3.176c-1.398,-0.749 -2.994,-1.175 -4.691,-1.175c-3.837,0 -7.166,2.164 -8.843,5.337l3.301,2.363c0.903,-2.172 3.043,-3.7 5.542,-3.7z" opacity="0.35"></path><path d="M6,12c0,-0.815 0.164,-1.591 0.458,-2.3l-3.301,-2.363c-0.736,1.393 -1.157,2.978 -1.157,4.663c0,1.642 0.403,3.187 1.104,4.554l3.248,-2.542c-0.224,-0.63 -0.352,-1.305 -0.352,-2.012z"></path><path d="M12,18c-2.607,0 -4.819,-1.666 -5.647,-3.989l-3.248,2.542c1.657,3.231 5.014,5.447 8.895,5.447c2.579,0 4.922,-0.984 6.695,-2.587l-3.111,-2.614c-1,0.75 -2.237,1.201 -3.584,1.201z" opacity="0.35"></path><path d="M22,12c0,-0.671 -0.069,-1.325 -0.195,-1.958l-0.01,-0.042h-0.795h-7c-1.105,0 -2,0.895 -2,2v0c0,1.105 0.895,2 2,2h3.651c-0.399,1.127 -1.129,2.095 -2.067,2.799l3.111,2.614c2.025,-1.83 3.305,-4.469 3.305,-7.413z"></path></g></g></svg>